<?xml version="1.0" encoding="UTF-8" standalone="no"?>
<svg
   fill="none"
   viewBox="0.53 -0.03 28.414764 25.348122"
   version="1.1"
   id="svg31"
   sodipodi:docname="logo.svg"
   inkscape:version="1.1.2 (b8e25be833, 2022-02-05)"
   width="28.414764"
   height="25.348122"
   xmlns:inkscape="http://www.inkscape.org/namespaces/inkscape"
   xmlns:sodipodi="http://sodipodi.sourceforge.net/DTD/sodipodi-0.dtd"
   xmlns="http://www.w3.org/2000/svg"
   xmlns:svg="http://www.w3.org/2000/svg">
  <sodipodi:namedview
     id="namedview33"
     pagecolor="#ffffff"
     bordercolor="#666666"
     borderopacity="1.0"
     inkscape:pageshadow="2"
     inkscape:pageopacity="0.0"
     inkscape:pagecheckerboard="0"
     showgrid="false"
     inkscape:zoom="13.644565"
     inkscape:cx="4.727157"
     inkscape:cy="1.2092727"
     inkscape:window-width="1920"
     inkscape:window-height="1001"
     inkscape:window-x="-9"
     inkscape:window-y="-9"
     inkscape:window-maximized="1"
     inkscape:current-layer="svg31"
     fit-margin-top="0"
     fit-margin-left="0"
     fit-margin-right="0"
     fit-margin-bottom="0" />
  <g
     id="g904"
     transform="translate(-0.01455609,-8.2648584)">
    <path
       d="m 19.9883,8.23505 c -2.1796,0 -4.1,0.86477 -5.7106,2.56585 C 12.6671,9.09858 10.7467,8.23505 8.56715,8.23505 7.49519,8.22755 6.4331,8.44033 5.4466,8.86021 4.4601,9.2801 3.57018,9.89816 2.83191,10.6762 1.3427,12.2631 0.523387,14.3645 0.544972,16.5417 v 11.6681 c 0,0.0983 0.039006,0.1926 0.108442,0.2621 0.069437,0.0695 0.163614,0.1085 0.261812,0.1085 H 4.78685 c 0.0982,0 0.19238,-0.039 0.26181,-0.1085 0.06944,-0.0695 0.10845,-0.1638 0.10845,-0.2621 V 16.5417 c -0.0186,-0.9589 0.31768,-1.8908 0.94415,-2.6165 0.31351,-0.3379 0.69326,-0.6073 1.11553,-0.7916 0.42227,-0.1843 0.87797,-0.2794 1.33863,-0.2794 0.46066,0 0.91636,0.0951 1.33863,0.2794 0.42225,0.1843 0.80205,0.4537 1.11555,0.7916 0.626,0.726 0.9622,1.6577 0.9441,2.6165 v 11.6681 c 0,0.0983 0.0391,0.1926 0.1085,0.2621 0.0694,0.0695 0.1636,0.1085 0.2618,0.1085 h 3.8729 c 0.0491,8e-4 0.0979,-0.0082 0.1435,-0.0264 0.0457,-0.0183 0.0872,-0.0454 0.1223,-0.0799 0.035,-0.0345 0.0628,-0.0757 0.0818,-0.121 0.019,-0.0454 0.0288,-0.0941 0.0288,-0.1433 V 16.5417 c -0.0183,-0.9586 0.3175,-1.8903 0.9429,-2.6165 0.3136,-0.3379 0.6935,-0.6074 1.1159,-0.7917 0.4223,-0.1843 0.8781,-0.2794 1.3389,-0.2794 0.4607,0 0.9165,0.0951 1.3389,0.2794 0.4224,0.1843 0.8022,0.4538 1.1159,0.7917 0.6259,0.726 0.9621,1.6577 0.9441,2.6165 v 11.6681 c 0,0.0983 0.039,0.1926 0.1085,0.2621 0.0694,0.0695 0.1636,0.1085 0.2618,0.1085 h 3.8728 c 0.0982,0 0.1924,-0.039 0.2618,-0.1085 0.0695,-0.0695 0.1085,-0.1638 0.1085,-0.2621 V 16.5417 C 28.0048,14.3648 27.186,12.2635 25.6976,10.6762 24.9622,9.90147 24.0765,9.28535 23.0947,8.86558 22.1129,8.44581 21.0558,8.23125 19.9883,8.23505 Z"
       id="path22"
       style="fill:#0066ff"
       sodipodi:nodetypes="ccccccsssscsccsscccsssccccscccssccscsscsccsc" />
    <path
       d="m 28.255515,29.38578 h -5.0305 c -0.135,-10e-5 -0.2671,0.0389 -0.3805,0.1121 -0.1134,0.0733 -0.2033,0.1778 -0.2588,0.301 -0.0555,0.1231 -0.0743,0.2597 -0.0542,0.3933 0.0201,0.1336 0.0784,0.2585 0.1677,0.3598 l 2.4252,2.7512 c 0.077,0.0879 0.1719,0.1583 0.2783,0.2066 0.1065,0.0483 0.222,0.0732 0.3388,0.0732 0.1168,0 0.2323,-0.0249 0.3387,-0.0732 0.1065,-0.0483 0.2014,-0.1187 0.2784,-0.2066 l 2.4251,-2.7512 c 0.0893,-0.1012 0.1476,-0.226 0.1677,-0.3595 0.0202,-0.1335 0.0015,-0.27 -0.0539,-0.3931 -0.0553,-0.1231 -0.145,-0.2276 -0.2582,-0.301 -0.1132,-0.0733 -0.2452,-0.1124 -0.3801,-0.1126 z"
       style="fill:#0066ff"
       id="path357" />
  </g>
  <defs
     id="defs29">
    <clipPath
       id="a">
      <path
         fill="#ffffff"
         d="m 0.544922,0 h 88.65 v 36 h -88.65 z"
         id="path26" />
    </clipPath>
  </defs>
</svg>
