<?xml version="1.0" encoding="UTF-8" standalone="no"?>
<svg
   data-name="Layer 1"
   viewBox="0 0 61.668941 50.444439"
   x="0px"
   y="0px"
   version="1.1"
   id="svg14"
   sodipodi:docname="shopping-cart-sad.svg"
   width="61.668941"
   height="50.444439"
   inkscape:version="1.1.2 (b8e25be833, 2022-02-05)"
   xmlns:inkscape="http://www.inkscape.org/namespaces/inkscape"
   xmlns:sodipodi="http://sodipodi.sourceforge.net/DTD/sodipodi-0.dtd"
   xmlns="http://www.w3.org/2000/svg"
   xmlns:svg="http://www.w3.org/2000/svg"
   xmlns:rdf="http://www.w3.org/1999/02/22-rdf-syntax-ns#"
   xmlns:cc="http://creativecommons.org/ns#"
   xmlns:dc="http://purl.org/dc/elements/1.1/">
  <sodipodi:namedview
     id="namedview16"
     pagecolor="#ffffff"
     bordercolor="#666666"
     borderopacity="1.0"
     inkscape:pageshadow="2"
     inkscape:pageopacity="0.0"
     inkscape:pagecheckerboard="0"
     showgrid="false"
     fit-margin-top="0"
     fit-margin-left="0"
     fit-margin-right="0"
     fit-margin-bottom="0"
     inkscape:zoom="6.464"
     inkscape:cx="35.659035"
     inkscape:cy="35.504332"
     inkscape:window-width="1920"
     inkscape:window-height="1001"
     inkscape:window-x="-9"
     inkscape:window-y="-9"
     inkscape:window-maximized="1"
     inkscape:current-layer="svg14" />
  <defs
     id="defs4">
    <style
       id="style2">.cls-1{fill:#010101;}</style>
  </defs>
  <title
     id="title6">shopping</title>
  <path
     class="cls-1"
     d="m 61.452782,7.7277822 a 1,1 0 0 0 -0.76,-0.35 h -49.7 l -0.9999998,-5.55 a 1,1 0 0 0 -0.86,-0.82 l -8,-0.99999998 A 1.0077822,1.0077822 0 0 0 0.88278222,2.0077822 l 7.31999998,0.91 6.3299998,36.2999998 a 1,1 0 0 0 1,0.83 h 5.38 v 0.72 a 4.89,4.89 0 1 0 2,0 v -0.76 h 26.14 v 0.72 a 4.89,4.89 0 1 0 2,0 v -0.72 h 4.89 a 1,1 0 0 0 0,-2 h -39.6 l -0.57,-3.28 h 41.16 a 1,1 0 0 0 1,-0.85 l 3.72,-25.3499998 a 1,1 0 0 0 -0.2,-0.8 z m -36.68,37.7999998 a 2.89,2.89 0 1 1 -2.89,-2.89 2.89,2.89 0 0 1 2.89,2.89 z m 28.16,0 a 2.89,2.89 0 1 1 -2.89,-2.89 2.89,2.89 0 0 1 2.89,2.89 z m 3.14,-12.78 h -40.65 l -4.08,-23.3699998 h 48.19 z m -25.71,-6.67 a 1,1 0 0 1 -0.93,-1.36 6.5,6.5 0 0 1 12.1,0 1,1 0 1 1 -1.86,0.73 4.49,4.49 0 0 0 -4.2,-2.85 4.44,4.44 0 0 0 -4.17,2.84 1,1 0 0 1 -0.94,0.64 z m 1.84,-8.43 a 1.59,1.59 0 1 1 -1.55,-1.64 1.59,1.59 0 0 1 1.55,1.64 z m 9.74,0 a 1.59,1.59 0 1 1 -1.6,-1.64 1.59,1.59 0 0 1 1.6,1.64 z"
     id="path8" />
  <metadata
     id="metadata18">
    <rdf:RDF>
      <cc:Work
         rdf:about="">
        <dc:title>shopping</dc:title>
      </cc:Work>
    </rdf:RDF>
  </metadata>
</svg>
